<svg width="838" height="496" viewBox="0 0 838 496" fill="none" xmlns="http://www.w3.org/2000/svg">
<g clip-path="url(#clip0_4_297)">
<path opacity="0.23" d="M692.593 30.0555C641.175 4.95641 581.652 -4.43133 524.798 3.18629C466.567 10.987 414.808 39.6996 359.562 57.7304C304.707 75.627 246.842 84.4776 189.147 83.3056C163.371 82.7807 134.597 74.2597 109.369 79.2038C84.7018 84.0503 62.3259 98.3455 45.7999 117.072C25.6055 139.949 13.4913 169.065 6.80049 198.864C-9.15271 269.962 5.8255 348.262 50.1386 406.078C94.4395 463.882 168.112 498.954 240.626 492.985C322.964 486.222 398.172 430.469 480.522 437.073C522.824 440.467 561.799 460.109 601.615 474.82C641.431 489.53 686.426 499.308 725.621 483.011C750.714 472.573 770.653 452.431 786.594 430.384C851.248 340.95 854.538 211.816 794.357 118.806C769.117 79.7776 733.396 49.9785 692.593 30.0555Z" fill="#FECE2F" stroke="white" stroke-miterlimit="10"/>
<path opacity="0.27" d="M692.593 30.0555C641.175 4.95641 581.652 -4.43133 524.798 3.18629C466.567 10.987 414.808 39.6996 359.562 57.7304C304.707 75.627 246.842 84.4776 189.147 83.3056C163.371 82.7807 134.597 74.2597 109.369 79.2038C84.7018 84.0503 62.3259 98.3455 45.7999 117.072C25.6055 139.949 13.4913 169.065 6.80049 198.864C-9.15271 269.962 5.8255 348.262 50.1386 406.078C94.4395 463.882 168.112 498.954 240.626 492.985C322.964 486.222 398.172 430.469 480.522 437.073C522.824 440.467 561.799 460.109 601.615 474.82C641.431 489.53 686.426 499.308 725.621 483.011C750.714 472.573 770.653 452.431 786.594 430.384C851.248 340.95 854.538 211.816 794.357 118.806C769.117 79.7776 733.396 49.9785 692.593 30.0555Z" fill="#FECE2F" stroke="white" stroke-miterlimit="10"/>
<g opacity="0.3">
<path d="M754.809 25.4165H528.491V490.372H754.809V25.4165Z" stroke="white" stroke-miterlimit="10" stroke-linecap="round" stroke-linejoin="round"/>
<path d="M634.106 39.6384H540.032V230.775H634.106V39.6384Z" stroke="white" stroke-miterlimit="10" stroke-linecap="round" stroke-linejoin="round"/>
<path d="M624.247 59.6958H549.904V210.73H624.247V59.6958Z" stroke="white" stroke-miterlimit="10" stroke-linecap="round" stroke-linejoin="round"/>
<path d="M549.904 59.6957L540.032 39.6384" stroke="white" stroke-miterlimit="10" stroke-linecap="round" stroke-linejoin="round"/>
<path d="M624.234 59.6957L634.106 39.6384" stroke="white" stroke-miterlimit="10" stroke-linecap="round" stroke-linejoin="round"/>
<path d="M549.904 210.73L540.032 230.775" stroke="white" stroke-miterlimit="10" stroke-linecap="round" stroke-linejoin="round"/>
<path d="M624.234 210.73L634.106 230.775" stroke="white" stroke-miterlimit="10" stroke-linecap="round" stroke-linejoin="round"/>
<path d="M739.721 39.6384H645.648V230.775H739.721V39.6384Z" stroke="white" stroke-miterlimit="10" stroke-linecap="round" stroke-linejoin="round"/>
<path d="M729.862 59.6958H655.519V210.73H729.862V59.6958Z" stroke="white" stroke-miterlimit="10" stroke-linecap="round" stroke-linejoin="round"/>
<path d="M655.519 59.6957L645.648 39.6384" stroke="white" stroke-miterlimit="10" stroke-linecap="round" stroke-linejoin="round"/>
<path d="M729.85 59.6957L739.722 39.6384" stroke="white" stroke-miterlimit="10" stroke-linecap="round" stroke-linejoin="round"/>
<path d="M655.519 210.73L645.648 230.775" stroke="white" stroke-miterlimit="10" stroke-linecap="round" stroke-linejoin="round"/>
<path d="M729.85 210.73L739.722 230.775" stroke="white" stroke-miterlimit="10" stroke-linecap="round" stroke-linejoin="round"/>
<path d="M634.106 266.336H540.032V466.909H634.106V266.336Z" stroke="white" stroke-miterlimit="10" stroke-linecap="round" stroke-linejoin="round"/>
<path d="M624.247 287.382H549.904V445.863H624.247V287.382Z" stroke="white" stroke-miterlimit="10" stroke-linecap="round" stroke-linejoin="round"/>
<path d="M549.904 287.382L540.032 266.336" stroke="white" stroke-miterlimit="10" stroke-linecap="round" stroke-linejoin="round"/>
<path d="M624.234 287.382L634.106 266.336" stroke="white" stroke-miterlimit="10" stroke-linecap="round" stroke-linejoin="round"/>
<path d="M549.904 445.863L540.032 466.909" stroke="white" stroke-miterlimit="10" stroke-linecap="round" stroke-linejoin="round"/>
<path d="M624.234 445.863L634.106 466.909" stroke="white" stroke-miterlimit="10" stroke-linecap="round" stroke-linejoin="round"/>
<path d="M739.721 266.336H645.648V466.909H739.721V266.336Z" stroke="white" stroke-miterlimit="10" stroke-linecap="round" stroke-linejoin="round"/>
<path d="M729.862 287.382H655.519V445.863H729.862V287.382Z" stroke="white" stroke-miterlimit="10" stroke-linecap="round" stroke-linejoin="round"/>
<path d="M655.519 287.382L645.648 266.336" stroke="white" stroke-miterlimit="10" stroke-linecap="round" stroke-linejoin="round"/>
<path d="M729.85 287.382L739.722 266.336" stroke="white" stroke-miterlimit="10" stroke-linecap="round" stroke-linejoin="round"/>
<path d="M655.519 445.863L645.648 466.909" stroke="white" stroke-miterlimit="10" stroke-linecap="round" stroke-linejoin="round"/>
<path d="M729.85 445.863L739.722 466.909" stroke="white" stroke-miterlimit="10" stroke-linecap="round" stroke-linejoin="round"/>
<path d="M737.065 258.34C741.965 258.34 745.937 254.361 745.937 249.453C745.937 244.544 741.965 240.565 737.065 240.565C732.165 240.565 728.192 244.544 728.192 249.453C728.192 254.361 732.165 258.34 737.065 258.34Z" stroke="white" stroke-miterlimit="10" stroke-linecap="round" stroke-linejoin="round"/>
</g>
<path d="M482.703 402.062H466.884V488.956H482.703V402.062Z" fill="white" stroke="white" stroke-miterlimit="10" stroke-linecap="round" stroke-linejoin="round"/>
<path d="M533.183 403.795H416.428C414.722 403.795 413.333 402.403 413.333 400.694C413.333 398.985 414.722 397.594 416.428 397.594H533.183C534.889 397.594 536.279 398.985 536.279 400.694C536.266 402.403 534.889 403.795 533.183 403.795Z" fill="white" stroke="white" stroke-miterlimit="10" stroke-linecap="round" stroke-linejoin="round"/>
<path d="M506.907 488.517H442.704V490.372H506.907V488.517Z" fill="white" stroke="white" stroke-miterlimit="10" stroke-linecap="round" stroke-linejoin="round"/>
<g opacity="0.3">
<path d="M275.531 212.036H78.7423V490.031H275.531V212.036Z" stroke="white" stroke-miterlimit="10" stroke-linecap="round" stroke-linejoin="round"/>
<path d="M264.172 219.898H90.101V271.415H264.172V219.898Z" stroke="white" stroke-miterlimit="10" stroke-linecap="round" stroke-linejoin="round"/>
<path d="M264.172 283.085H90.101V334.602H264.172V283.085Z" stroke="white" stroke-miterlimit="10" stroke-linecap="round" stroke-linejoin="round"/>
<path d="M264.172 346.26H90.101V397.777H264.172V346.26Z" stroke="white" stroke-miterlimit="10" stroke-linecap="round" stroke-linejoin="round"/>
<path d="M264.172 409.435H90.101V460.952H264.172V409.435Z" stroke="white" stroke-miterlimit="10" stroke-linecap="round" stroke-linejoin="round"/>
<path d="M179.27 254.652C184.242 253.476 187.321 248.486 186.147 243.506C184.973 238.526 179.991 235.442 175.019 236.618C170.047 237.794 166.968 242.784 168.142 247.764C169.316 252.744 174.298 255.828 179.27 254.652Z" stroke="white" stroke-miterlimit="10" stroke-linecap="round" stroke-linejoin="round"/>
<path d="M183.676 316.297C187.288 312.678 187.288 306.812 183.676 303.193C180.063 299.575 174.206 299.575 170.594 303.193C166.982 306.812 166.982 312.678 170.594 316.297C174.206 319.915 180.063 319.915 183.676 316.297Z" stroke="white" stroke-miterlimit="10" stroke-linecap="round" stroke-linejoin="round"/>
<path d="M183.676 380.387C187.288 376.768 187.288 370.902 183.676 367.283C180.063 363.665 174.206 363.665 170.594 367.283C166.982 370.902 166.982 376.768 170.594 380.387C174.206 384.005 180.063 384.005 183.676 380.387Z" stroke="white" stroke-miterlimit="10" stroke-linecap="round" stroke-linejoin="round"/>
<path d="M177.143 447.194C182.251 447.194 186.393 443.045 186.393 437.928C186.393 432.811 182.251 428.662 177.143 428.662C172.034 428.662 167.893 432.811 167.893 437.928C167.893 443.045 172.034 447.194 177.143 447.194Z" stroke="white" stroke-miterlimit="10" stroke-linecap="round" stroke-linejoin="round"/>
</g>
<g opacity="0.3">
<path d="M183.87 71.5737V82.8537" stroke="white" stroke-miterlimit="10" stroke-linecap="round" stroke-linejoin="round"/>
<path d="M188.294 67.1423H209.256" stroke="white" stroke-miterlimit="10" stroke-linecap="round" stroke-linejoin="round"/>
<path d="M188.294 67.1423C188.294 64.6886 186.308 62.7109 183.87 62.7109C181.42 62.7109 179.446 64.7008 179.446 67.1423C179.446 69.5961 181.433 71.5738 183.87 71.5738C186.308 71.5738 188.294 69.5839 188.294 67.1423Z" stroke="white" stroke-miterlimit="10" stroke-linecap="round" stroke-linejoin="round"/>
</g>
<path opacity="0.3" d="M198.233 119.981C227.361 112.038 244.546 81.9453 236.615 52.7682C228.685 23.591 198.643 6.37792 169.514 14.3216C140.386 22.2652 123.202 52.3576 131.132 81.5347C139.062 110.712 169.104 127.925 198.233 119.981Z" stroke="white" stroke-miterlimit="10" stroke-linecap="round" stroke-linejoin="round"/>
<path opacity="0.3" d="M183.87 112.799C209.044 112.799 229.451 92.3581 229.451 67.1425C229.451 41.9269 209.044 21.4856 183.87 21.4856C158.697 21.4856 138.29 41.9269 138.29 67.1425C138.29 92.3581 158.697 112.799 183.87 112.799Z" stroke="white" stroke-miterlimit="10" stroke-linecap="round" stroke-linejoin="round"/>
<path d="M25.764 490.372H807.178" stroke="white" stroke-miterlimit="10" stroke-linecap="round" stroke-linejoin="round"/>
<path d="M598.995 442.555L592.608 483.622C592.06 487.162 594.79 490.372 598.373 490.372C601.481 490.372 604.052 487.931 604.199 484.818L606.392 441.517L598.995 442.555Z" fill="white" stroke="white" stroke-miterlimit="10" stroke-linecap="round" stroke-linejoin="round"/>
<path d="M642.43 442.555L648.816 483.622C649.365 487.162 646.635 490.372 643.052 490.372C639.944 490.372 637.372 487.931 637.226 484.818L635.032 441.517L642.43 442.555Z" fill="white" stroke="white" stroke-miterlimit="10" stroke-linecap="round" stroke-linejoin="round"/>
<path d="M643.905 442.555H598.994C595.887 442.555 593.376 440.028 593.376 436.927C593.376 433.814 595.899 431.299 598.994 431.299H643.905C647.013 431.299 649.523 433.826 649.523 436.927C649.535 440.04 647.013 442.555 643.905 442.555Z" fill="white" stroke="white" stroke-miterlimit="10" stroke-linecap="round" stroke-linejoin="round"/>
<path d="M557.631 331.55C557.631 331.55 560.592 342.415 563.054 346.114C565.516 349.813 568.965 369.076 579.08 373.276C589.184 377.475 603.723 366.61 603.723 366.61L606.685 334.272C606.685 334.272 602.492 336.25 600.774 341.438C599.043 346.626 599.299 351.558 599.299 352.791C599.299 354.024 584.76 357.723 581.554 356.002C578.349 354.268 571.853 336.006 571.853 336.006L574.9 329.096L557.899 327.863L557.631 331.55Z" fill="white" stroke="white" stroke-miterlimit="10" stroke-linecap="round" stroke-linejoin="round"/>
<path d="M608.098 256.619C608.098 256.619 598.349 261.074 597.325 268.619C596.301 276.163 595.277 280.79 593.047 283.354C590.829 285.929 586.551 286.784 586.551 288.322C586.551 289.86 588.599 291.923 589.293 292.778C589.976 293.632 591.341 304.082 592.036 307.171C592.718 310.259 593.912 311.798 596.143 312.481C598.361 313.165 607.428 312.823 607.428 312.823L609.829 325.849C609.829 325.849 616.495 326.874 620.091 326.191C623.686 325.507 626.416 323.969 626.416 323.969L630.523 320.367C630.523 320.367 630.011 313.519 630.864 310.43C631.717 307.342 639.079 305.974 639.59 293.816C640.102 281.644 626.416 265.372 622.821 263.15C619.213 260.904 608.098 256.619 608.098 256.619Z" fill="white" stroke="white" stroke-miterlimit="10" stroke-linecap="round" stroke-linejoin="round"/>
<path d="M603.821 251.821C603.821 251.821 606.039 268.265 612.717 275.98C619.384 283.695 627.769 288.151 627.769 288.151C627.769 288.151 627.939 300.151 628.281 304.766C628.622 309.381 627.257 312.823 625.368 314.532C623.491 316.241 619.043 317.963 619.043 317.963C619.043 317.963 623.662 323.615 633.07 324.982C642.479 326.349 652.058 323.102 656.677 312.64C661.296 302.19 663.868 286.772 656.677 270.316C649.487 253.884 619.384 239.491 603.821 251.821Z" fill="#232220" stroke="white" stroke-miterlimit="10" stroke-linecap="round" stroke-linejoin="round"/>
<path d="M623.15 291.069C623.15 291.069 626.233 285.588 630.157 286.271C634.094 286.955 634.435 297.576 631.352 301.177C628.268 304.778 624.685 306.317 623.479 304.437" fill="white"/>
<path d="M623.15 291.069C623.15 291.069 626.233 285.588 630.157 286.271C634.094 286.955 634.435 297.576 631.352 301.177C628.268 304.778 624.685 306.317 623.479 304.437" stroke="white" stroke-miterlimit="10" stroke-linecap="round" stroke-linejoin="round"/>
<path d="M595.777 295.696C595.777 295.696 601.59 297.405 604.844 293.474" stroke="white" stroke-miterlimit="10" stroke-linecap="round" stroke-linejoin="round"/>
<path d="M603.967 281.657C603.687 283.195 602.785 284.318 601.944 284.159C601.103 284.013 600.652 282.633 600.932 281.107C601.213 279.569 602.114 278.446 602.955 278.605C603.796 278.763 604.247 280.119 603.967 281.657Z" fill="#232220" stroke="white" stroke-miterlimit="10"/>
<path d="M600.396 273.758C600.396 273.758 604.333 270.157 607.062 276.505" stroke="white" stroke-miterlimit="10" stroke-linecap="round" stroke-linejoin="round"/>
<path d="M543.298 417.651C543.298 417.651 559.654 468.716 559.654 470.156C559.654 471.597 559.179 474.014 550.513 478.348C541.86 482.681 532.72 480.753 536.084 486.051C539.447 491.349 543.859 489.713 555.803 490.873C567.734 492.02 576.96 486.539 577.923 480.277C578.885 474.014 567.442 442.64 567.344 430.176C567.247 417.712 550.513 402.721 543.298 417.651Z" fill="#232220" stroke="white" stroke-miterlimit="10" stroke-linecap="round" stroke-linejoin="round"/>
<path d="M552.463 398.204C552.463 398.204 541.86 399.193 541.129 408.08C540.386 416.967 567.259 471.536 567.259 471.536C567.259 471.536 562.079 479.434 555.181 482.156C548.283 484.867 543.591 485.611 543.591 488.822C543.591 492.033 548.771 493.754 557.399 494.999C566.028 496.232 579.824 494.254 583.029 493.265C586.234 492.277 588.94 491.044 588.94 487.088C588.94 483.133 583.517 470.059 583.517 470.059L576.363 431.543C576.363 431.543 569.209 409.813 563.298 402.904C557.387 395.982 552.463 398.204 552.463 398.204Z" fill="white" stroke="white" stroke-miterlimit="10" stroke-linecap="round" stroke-linejoin="round"/>
<path d="M588.94 487.088C588.94 484.439 586.515 477.701 584.906 473.538C579.934 476.26 572.182 476.468 572.182 476.468C572.182 476.468 572.182 476.468 571.195 473.013C570.208 469.558 567.247 471.536 567.247 471.536C567.247 471.536 562.067 479.434 555.169 482.156C548.271 484.866 543.579 485.611 543.579 488.822C543.579 492.032 548.758 493.754 557.387 494.999C566.016 496.232 579.812 494.254 583.017 493.265C586.222 492.277 588.94 491.044 588.94 487.088Z" fill="white" stroke="white" stroke-miterlimit="10" stroke-linecap="round" stroke-linejoin="round"/>
<path d="M588.891 487.638C584.65 489.383 577.667 491.471 567.746 492.02C554.986 492.728 547.101 489.872 543.652 488.211C543.615 488.407 543.591 488.602 543.591 488.81C543.591 492.02 548.771 493.742 557.399 494.987C566.028 496.22 579.824 494.242 583.029 493.253C586.064 492.325 588.635 491.141 588.891 487.638Z" fill="white" stroke="white" stroke-miterlimit="10" stroke-linecap="round" stroke-linejoin="round"/>
<path d="M621.968 318.707C621.968 318.707 610.633 321.674 605.941 331.55C601.261 341.426 600.762 365.133 600.762 371.542C600.762 377.963 595.582 391.05 595.582 391.05C595.582 391.05 572.17 392.283 564.285 394.505C556.4 396.727 552.451 398.204 552.451 398.204C552.451 398.204 574.876 434.253 580.555 438.697C586.222 443.14 596.325 433.02 596.325 433.02C596.325 433.02 634.289 431.787 639.456 431.787C644.636 431.787 650.303 425.61 652.521 416.723C654.739 407.836 652.765 373.764 647.598 350.313C642.43 326.85 631.327 317.474 621.968 318.707Z" fill="#FECE2F" stroke="white" stroke-miterlimit="10" stroke-linecap="round" stroke-linejoin="round"/>
<path d="M603.236 358.7C603.236 358.7 627.878 364.376 645.635 355.99" stroke="white" stroke-miterlimit="10" stroke-linecap="round" stroke-linejoin="round"/>
<path d="M642.674 357.723C642.674 357.723 644.587 370.077 644.149 379.453" stroke="white" stroke-miterlimit="10" stroke-linecap="round" stroke-linejoin="round"/>
<path d="M635.52 360.433C635.52 360.433 635.764 371.298 635.764 372.531" stroke="white" stroke-miterlimit="10" stroke-linecap="round" stroke-linejoin="round"/>
<path d="M600.274 391.05C600.274 391.05 631.827 400.438 635.032 412.279" stroke="white" stroke-miterlimit="10" stroke-linecap="round" stroke-linejoin="round"/>
<path d="M622.711 396.727C622.711 396.727 648.841 406.603 646.123 407.836C643.417 409.069 639.225 406.603 639.225 406.603" stroke="white" stroke-miterlimit="10" stroke-linecap="round" stroke-linejoin="round"/>
<path d="M639.225 396.482C639.225 396.482 623.199 394.017 615.557 394.261" stroke="white" stroke-miterlimit="10" stroke-linecap="round" stroke-linejoin="round"/>
<path d="M632.315 414.098C632.363 414.098 632.363 407.994 632.315 407.994C632.278 407.994 632.278 414.098 632.315 414.098Z" fill="white"/>
<path d="M593.376 431.287C593.376 431.287 586.966 432.276 580.311 429.81C573.657 427.344 567.247 417.712 567.247 417.712" stroke="white" stroke-miterlimit="10" stroke-linecap="round" stroke-linejoin="round"/>
<path d="M548.271 342.659L555.413 346.858L580.068 347.591L586.478 343.403L548.271 342.659Z" fill="white" stroke="white" stroke-miterlimit="10" stroke-linecap="round" stroke-linejoin="round"/>
<path d="M614.814 351.302L612.596 369.321L592.633 353.267C592.633 353.267 588.94 345.125 587.453 342.647C585.978 340.181 581.542 339.192 577.837 337.959C574.145 336.726 571.427 332.771 570.196 334.992C568.965 337.214 568.965 340.669 570.939 341.658C572.914 342.647 576.363 345.357 576.363 345.357C576.363 345.357 570.196 346.59 567.734 347.09C565.272 347.579 558.862 345.613 558.118 347.579C557.375 349.556 561.08 352.51 561.811 352.767C562.554 353.011 567.978 355.477 572.158 356.722C576.35 357.955 583.248 360.922 583.248 360.922C583.248 360.922 596.313 377.951 600.993 380.43C605.673 382.896 613.071 389.317 617.995 388.828C622.918 388.34 628.098 382.651 630.072 374.265C632.046 365.866 634.021 353.035 634.021 353.035L614.814 351.302Z" fill="white" stroke="white" stroke-miterlimit="10" stroke-linecap="round" stroke-linejoin="round"/>
<path d="M613.79 359.676C617.361 361.141 623.698 362.899 632.522 362.191C633.424 357.125 634.057 353.023 634.057 353.023L614.826 351.29L613.79 359.676Z" fill="#FECE2F" stroke="white" stroke-miterlimit="10" stroke-linecap="round" stroke-linejoin="round"/>
<path d="M625.782 358.456C634.425 358.456 641.431 351.438 641.431 342.781C641.431 334.124 634.425 327.106 625.782 327.106C617.14 327.106 610.134 334.124 610.134 342.781C610.134 351.438 617.14 358.456 625.782 358.456Z" fill="#FECE2F" stroke="white" stroke-miterlimit="10" stroke-linecap="round" stroke-linejoin="round"/>
<path d="M559.118 322.663C559.118 322.663 552.463 321.674 551.72 324.396C550.976 327.106 552.207 329.328 554.182 329.584C556.156 329.829 560.349 330.073 561.336 328.351C562.323 326.606 563.31 323.395 559.118 322.663Z" fill="white" stroke="white" stroke-miterlimit="10" stroke-linecap="round" stroke-linejoin="round"/>
<path d="M554.182 329.572C554.182 329.572 550.976 331.306 552.707 334.26C554.438 337.226 558.374 336.726 560.105 335.993C561.835 335.249 562.567 331.794 559.861 330.561C557.155 329.328 554.182 329.572 554.182 329.572Z" fill="white" stroke="white" stroke-miterlimit="10" stroke-linecap="round" stroke-linejoin="round"/>
<path d="M555.169 336.726C555.169 336.726 555.169 340.681 557.874 340.925C560.58 341.169 566.003 339.448 565.028 337.715C564.041 335.981 560.105 335.981 560.105 335.981C560.105 335.981 556.899 336.982 555.169 336.726Z" fill="white" stroke="white" stroke-miterlimit="10" stroke-linecap="round" stroke-linejoin="round"/>
<path d="M560.349 341.182C560.349 341.182 562.079 342.659 563.554 342.659C565.028 342.659 565.028 337.727 565.028 337.727C565.028 337.727 562.81 341.426 560.349 341.182Z" fill="white" stroke="white" stroke-miterlimit="10" stroke-linecap="round" stroke-linejoin="round"/>
<path d="M557.948 320.441C558.654 329.181 564.602 335.993 571.841 335.993C579.068 335.993 585.016 329.169 585.735 320.441H557.948Z" fill="white" stroke="white" stroke-miterlimit="10" stroke-linecap="round" stroke-linejoin="round"/>
<path d="M229.378 442.555L222.991 483.622C222.443 487.162 225.173 490.372 228.756 490.372C231.864 490.372 234.435 487.931 234.582 484.818L236.775 441.517L229.378 442.555Z" fill="white" stroke="white" stroke-miterlimit="10" stroke-linecap="round" stroke-linejoin="round"/>
<path d="M272.813 442.555L279.199 483.622C279.748 487.162 277.018 490.372 273.435 490.372C270.327 490.372 267.755 487.931 267.609 484.818L265.416 441.517L272.813 442.555Z" fill="white" stroke="white" stroke-miterlimit="10" stroke-linecap="round" stroke-linejoin="round"/>
<path d="M274.288 442.555H229.378C226.27 442.555 223.759 440.028 223.759 436.927C223.759 433.814 226.282 431.299 229.378 431.299H274.288C277.396 431.299 279.906 433.826 279.906 436.927C279.918 440.04 277.396 442.555 274.288 442.555Z" fill="white" stroke="white" stroke-miterlimit="10" stroke-linecap="round" stroke-linejoin="round"/>
<path d="M413.455 254.873C413.455 254.873 401.438 267.972 403.912 276.114C406.386 284.257 415.575 272.574 415.929 271.512C416.282 270.45 420.877 289.921 417.343 295.232C413.808 300.542 410.274 282.133 407.093 281.071C403.912 280.009 397.904 285.319 399.318 293.462C400.731 301.604 407.8 308.331 413.101 311.163L419.11 312.933C419.11 312.933 413.808 329.926 398.611 332.05C383.413 334.174 374.224 329.572 374.224 329.572L380.939 378.769C380.939 378.769 421.218 382.309 440.304 352.571C459.389 322.833 450.907 300.896 450.907 300.896L452.32 287.443C452.32 287.443 457.975 283.549 463.63 280.717C469.285 277.884 470.345 272.574 463.983 272.22C457.622 271.866 445.958 277.53 445.958 277.53C445.958 277.53 458.682 261.953 460.449 258.059C462.216 254.165 455.855 251.687 448.786 255.227C441.717 258.767 433.588 271.512 433.588 271.512C433.588 271.512 441.717 255.581 443.131 249.917C444.545 244.252 439.597 242.128 433.235 246.022C426.873 249.917 423.692 271.866 423.692 271.866C423.692 271.866 424.058 251.687 413.455 254.873Z" fill="#FECE2F" stroke="white" stroke-miterlimit="10" stroke-linecap="round" stroke-linejoin="round"/>
<path d="M431.833 295.219C431.833 295.219 428.299 308.672 443.497 306.902" stroke="white" stroke-miterlimit="10" stroke-linecap="round" stroke-linejoin="round"/>
<path d="M378.246 278.593C380.659 287.016 387.813 292.534 394.906 291.118C401.999 289.702 406.496 281.84 405.484 273.136L378.246 278.593Z" fill="white" stroke="white" stroke-miterlimit="10" stroke-linecap="round" stroke-linejoin="round"/>
<path d="M364.316 173.118C364.316 173.118 384.461 155.417 419.792 155.771C455.135 156.125 473.502 183.03 473.148 196.471C472.795 209.924 475.269 210.278 439.219 200.011C403.169 189.745 385.863 184.434 373.493 186.204" fill="#232220"/>
<path d="M364.316 173.118C364.316 173.118 384.461 155.417 419.792 155.771C455.135 156.125 473.502 183.03 473.148 196.471C472.795 209.924 475.269 210.278 439.219 200.011C403.169 189.745 385.863 184.434 373.493 186.204" stroke="white" stroke-miterlimit="10" stroke-linecap="round" stroke-linejoin="round"/>
<path d="M392.31 388.841C392.31 388.841 391.956 395.616 388.398 416.308C384.839 437 379.135 449.489 379.135 449.489C379.135 449.489 394.089 454.836 409.055 448.781C424.009 442.713 432.918 456.276 427.933 469.827C422.949 483.377 403.717 486.588 389.117 487.662C374.516 488.736 362.049 486.954 348.521 479.105C334.993 471.255 327.863 463.772 349.593 442.359C371.311 420.959 380.927 404.906 383.425 398.839C385.899 392.759 389.458 387.058 392.31 388.841Z" fill="#232220" stroke="white" stroke-miterlimit="10" stroke-linecap="round" stroke-linejoin="round"/>
<path d="M183.894 369.833C183.894 369.833 180.263 380.759 162.603 386.484C144.944 392.21 139.228 378.684 124.688 371.396C110.149 364.108 80.546 368.27 82.6179 401.048C84.6897 433.826 127.284 445.79 147.016 442.664C177.118 437.903 192.194 399.486 191.682 389.61" fill="#FECE2F"/>
<path d="M183.894 369.833C183.894 369.833 180.263 380.759 162.603 386.484C144.944 392.21 139.228 378.684 124.688 371.396C110.149 364.108 80.546 368.27 82.6179 401.048C84.6897 433.826 127.284 445.79 147.016 442.664C177.118 437.903 192.194 399.486 191.682 389.61" stroke="white" stroke-miterlimit="10" stroke-linecap="round" stroke-linejoin="round"/>
<path d="M228.134 219.226C228.134 219.226 239.737 197.533 228.134 178.172C216.532 158.81 137.668 153.39 136.888 165C136.12 176.621 168.587 178.941 168.587 178.941C168.587 178.941 150.026 188.231 157.765 193.651C165.492 199.071 189.464 199.853 189.464 199.853C189.464 199.853 185.394 215.076 191.682 217.92C197.971 220.764 206.478 219.995 206.478 219.995C206.478 219.995 215.752 241.688 228.134 235.487C240.505 229.298 228.134 219.226 228.134 219.226Z" fill="#232220" stroke="white" stroke-miterlimit="10" stroke-linecap="round" stroke-linejoin="round"/>
<path d="M380.951 172.398C380.951 172.398 391.201 180.894 393.675 200.011C396.149 219.129 390.494 232.228 390.14 239.65C389.787 247.084 400.39 249.209 395.442 262.308C390.494 275.406 377.417 278.239 377.417 278.239C377.417 278.239 377.77 282.841 372.115 284.611C366.46 286.381 363.28 284.965 362.219 288.151C361.159 291.338 370.348 309.393 373.529 314.703C376.71 320.013 403.217 351.876 393.321 396.116C383.425 440.357 351.982 461.599 351.982 461.599C351.982 461.599 388.739 453.102 396.149 457.704C403.571 462.307 402.511 477.53 398.976 483.194C395.442 488.859 389.434 489.921 382.718 490.629C376.003 491.337 304.622 490.629 304.622 490.629C304.622 490.629 295.079 491.337 294.372 482.84C293.666 474.344 302.501 432.581 302.501 432.581C302.501 432.581 254.447 442.494 227.233 427.625C200.018 412.756 178.898 385.789 174.583 357.894C171.402 337.361 171.049 304.803 191.548 261.612C218.628 204.565 276.713 163.559 310.277 154.709C343.841 145.846 368.934 160.361 380.951 172.398Z" fill="#FECE2F" stroke="white" stroke-miterlimit="10" stroke-linecap="round" stroke-linejoin="round"/>
<path d="M401.097 351.253L408.824 354.256L433.271 351.045L438.926 345.882L401.097 351.253Z" fill="white" stroke="white" stroke-miterlimit="10" stroke-linecap="round" stroke-linejoin="round"/>
<path d="M336.781 336.769C336.781 336.769 338.194 345.62 353.745 350.93C369.296 356.241 376.718 354.471 376.718 354.471C376.718 354.471 379.192 343.142 381.666 341.018C384.141 338.894 396.157 338.54 399.338 336.769C402.519 334.999 406.76 336.769 407.467 342.434C408.174 348.098 399.338 350.93 397.924 351.638C396.511 352.347 406.76 353.763 414.536 353.409C422.311 353.055 438.569 348.098 441.397 350.222C444.224 352.347 443.871 356.241 442.103 358.719C440.336 361.197 433.621 365.799 431.5 368.632C429.38 371.464 426.199 377.128 415.949 381.731C405.7 386.333 384.847 388.811 384.847 388.811C384.847 388.811 365.055 403.326 311.699 393.413C258.343 383.501 248.8 342.8 248.093 332.533C247.387 322.267 250.921 312 250.921 312" fill="#FECE2F"/>
<path d="M336.781 336.769C336.781 336.769 338.194 345.62 353.745 350.93C369.296 356.241 376.718 354.471 376.718 354.471C376.718 354.471 379.192 343.142 381.666 341.018C384.14 338.894 396.157 338.54 399.338 336.769C402.519 334.999 406.76 336.769 407.467 342.434C408.174 348.098 399.338 350.93 397.924 351.638C396.511 352.347 406.76 353.763 414.536 353.409C422.311 353.055 438.569 348.098 441.397 350.222C444.224 352.347 443.871 356.241 442.103 358.719C440.336 361.197 433.621 365.799 431.5 368.632C429.38 371.464 426.199 377.128 415.949 381.731C405.7 386.333 384.847 388.811 384.847 388.811C384.847 388.811 365.055 403.326 311.699 393.413C258.343 383.501 248.8 342.8 248.093 332.533C247.387 322.267 250.921 312 250.921 312" stroke="white" stroke-miterlimit="10" stroke-linecap="round" stroke-linejoin="round"/>
<path d="M376.357 354.329C376.357 354.329 373.883 359.64 376.003 367.428" stroke="white" stroke-miterlimit="10" stroke-linecap="round" stroke-linejoin="round"/>
<path d="M313.104 299.822C318.406 307.964 313.458 321.063 321.94 318.231C330.423 315.399 329.009 297.344 337.138 303.362C345.267 309.38 345.267 318.939 350.922 316.461C356.577 313.983 351.275 295.219 357.637 298.76C363.999 302.3 367.18 314.691 368.947 311.15C369.385 310.259 369.678 309.124 369.861 307.928C366.058 300.518 361.464 290.446 362.232 288.139C363.292 284.953 366.473 286.369 372.128 284.599C377.783 282.829 377.429 278.226 377.429 278.226C377.429 278.226 390.506 275.394 395.454 262.295C400.402 249.196 389.799 247.072 390.153 239.638C390.506 232.203 396.161 219.104 393.687 199.999C391.213 180.894 380.963 172.385 380.963 172.385C368.947 160.348 343.853 145.833 310.289 154.684C279.467 162.802 228 198.046 198.824 247.902C203.467 243.471 211.243 237.135 210.987 244.594C210.633 255.215 202.858 263.711 207.099 266.897C211.34 270.084 225.478 246.364 226.538 256.985C227.598 267.605 218.762 273.27 224.064 277.518C229.365 281.766 241.382 262.649 243.503 269.376C245.623 276.102 234.667 287.431 237.141 294.865C239.615 302.3 256.226 273.624 259.761 282.829C263.295 292.033 253.399 299.114 259.407 304.424C265.415 309.734 279.199 284.245 284.147 295.927C289.095 307.61 291.569 316.815 295.811 314.337C300.027 311.858 307.803 291.679 313.104 299.822Z" fill="white" stroke="white" stroke-miterlimit="10" stroke-linecap="round" stroke-linejoin="round"/>
<path d="M360.793 412.267C363.316 410.839 365.766 409.337 368.094 407.75" stroke="white" stroke-miterlimit="10" stroke-linecap="round" stroke-linejoin="round"/>
<path d="M302.501 432.556C302.501 432.556 328.911 427.71 352.567 416.503" stroke="white" stroke-miterlimit="10" stroke-linecap="round" stroke-linejoin="round"/>
<path d="M319.478 474.588C317.711 474.929 315.871 475.247 313.958 475.515" stroke="white" stroke-miterlimit="10" stroke-linecap="round" stroke-linejoin="round"/>
<path d="M351.97 461.586C351.97 461.586 345.693 466.555 333.555 470.803" stroke="white" stroke-miterlimit="10" stroke-linecap="round" stroke-linejoin="round"/>
<path d="M218.689 237.184L210.378 238.222C210.378 238.222 196.35 263.711 187.002 262.149C177.655 260.586 183.882 246.022 183.882 246.022C183.882 246.022 173.499 256.423 165.187 253.823C156.875 251.223 166.747 233.021 166.747 233.021C166.747 233.021 145.456 241.859 138.18 232.496C130.904 223.133 146.492 213.245 146.492 213.245C146.492 213.245 103.909 217.407 102.349 199.718C100.789 182.029 185.442 178.916 197.386 189.317C209.329 199.718 220.237 224.17 220.237 224.17" fill="white"/>
<path d="M218.689 237.184L210.378 238.222C210.378 238.222 196.35 263.711 187.002 262.149C177.655 260.586 183.882 246.022 183.882 246.022C183.882 246.022 173.499 256.423 165.187 253.823C156.875 251.223 166.747 233.021 166.747 233.021C166.747 233.021 145.456 241.859 138.18 232.496C130.904 223.133 146.492 213.245 146.492 213.245C146.492 213.245 103.909 217.407 102.349 199.718C100.789 182.029 185.442 178.916 197.386 189.317C209.329 199.718 220.237 224.17 220.237 224.17" stroke="white" stroke-miterlimit="10" stroke-linecap="round" stroke-linejoin="round"/>
<path d="M156.887 208.056L177.143 204.931C177.143 204.931 164.163 212.732 169.867 216.895C175.583 221.058 191.682 217.932 191.682 217.932C191.682 217.932 182.335 228.333 188.562 230.934C194.79 233.534 203.626 225.208 203.626 225.208" fill="white"/>
<path d="M156.887 208.056L177.143 204.931C177.143 204.931 164.163 212.732 169.867 216.895C175.583 221.058 191.682 217.932 191.682 217.932C191.682 217.932 182.335 228.333 188.562 230.934C194.79 233.534 203.626 225.208 203.626 225.208" stroke="white" stroke-miterlimit="10" stroke-linecap="round" stroke-linejoin="round"/>
<path d="M396.502 245.314C396.502 245.314 392.968 236.818 385.192 240.712C377.417 244.606 383.072 252.041 385.899 255.581C388.727 259.121 395.442 262.308 395.442 262.308C395.442 262.308 411.346 256.997 408.872 247.085C406.386 237.172 396.502 245.314 396.502 245.314Z" fill="#FECE2F" stroke="white" stroke-miterlimit="10" stroke-linecap="round" stroke-linejoin="round"/>
<path d="M369.288 231.153C369.288 231.153 371.409 224.781 377.063 224.781C382.718 224.781 385.546 231.507 383.425 232.215C381.305 232.923 380.598 229.383 377.417 229.383C374.236 229.383 369.288 231.153 369.288 231.153Z" fill="#232220" stroke="white" stroke-miterlimit="10" stroke-linecap="round" stroke-linejoin="round"/>
<path d="M364.34 248.501C364.34 248.501 354.09 244.606 347.375 249.209" stroke="white" stroke-miterlimit="10" stroke-linecap="round" stroke-linejoin="round"/>
<path d="M354.444 247.438C354.444 247.438 348.789 275.76 377.417 278.239" stroke="white" stroke-miterlimit="10" stroke-linecap="round" stroke-linejoin="round"/>
<path d="M364.34 213.452C364.34 213.452 363.28 202.831 374.236 201.769C385.192 200.707 388.727 209.204 385.546 210.62C382.365 212.036 380.951 206.726 374.943 207.788C368.934 208.85 364.34 213.452 364.34 213.452Z" fill="#232220" stroke="white" stroke-miterlimit="10" stroke-linecap="round" stroke-linejoin="round"/>
<path d="M364.34 213.452C364.34 213.452 363.28 202.831 374.236 201.769C385.192 200.707 388.727 209.204 385.546 210.62C382.365 212.036 380.951 206.726 374.943 207.788C368.934 208.85 364.34 213.452 364.34 213.452Z" stroke="white" stroke-miterlimit="10" stroke-linecap="round" stroke-linejoin="round"/>
<path d="M332.885 178.77C332.885 178.77 335.346 139.608 348.789 118.952C363.987 95.5865 399.318 82.8416 425.118 93.1083C450.919 103.375 452.332 124.616 436.428 130.989C420.524 137.361 355.151 160.727 344.901 179.124" fill="white"/>
<path d="M332.885 178.77C332.885 178.77 335.346 139.608 348.789 118.952C363.987 95.5865 399.318 82.8416 425.118 93.1083C450.919 103.375 452.332 124.616 436.428 130.989C420.524 137.361 355.151 160.727 344.901 179.124" stroke="white" stroke-miterlimit="10" stroke-linecap="round" stroke-linejoin="round"/>
<path d="M162.603 386.484C158.374 387.852 154.84 388.108 151.696 387.632C155.937 401.317 159.069 421.276 151.635 441.627C157.789 439.869 163.249 436.707 168.002 432.74C171.476 414.782 168.88 398.106 165.199 385.557C164.37 385.874 163.505 386.191 162.603 386.484Z" fill="white" stroke="white" stroke-miterlimit="10" stroke-linecap="round" stroke-linejoin="round"/>
<path d="M131.014 442.42C141.531 427.673 147.479 410.289 148.417 391.123C148.49 389.671 148.527 388.255 148.539 386.851C143.567 385.19 139.459 381.662 134.816 378.049C136.023 394.297 133.878 418.054 116.815 438.917C121.593 440.577 126.431 441.737 131.014 442.42Z" fill="white" stroke="white" stroke-miterlimit="10" stroke-linecap="round" stroke-linejoin="round"/>
<path d="M178.154 377.756C175.558 380.185 171.866 382.798 166.686 384.971C171.841 395.884 176.692 409.838 176.765 423.706C181.664 417.541 185.369 410.766 187.867 404.747C185.576 394.749 181.896 385.471 178.154 377.756Z" fill="white" stroke="white" stroke-miterlimit="10" stroke-linecap="round" stroke-linejoin="round"/>
<path d="M124.688 371.396C122.263 370.175 119.411 369.296 116.365 368.795C112.574 383.188 104.421 400.255 87.9193 417.748C90.2837 421.582 93.3061 424.963 96.7795 427.881C115.511 408.312 124.628 389.17 128.942 373.837C127.613 372.97 126.2 372.153 124.688 371.396Z" fill="white" stroke="white" stroke-miterlimit="10" stroke-linecap="round" stroke-linejoin="round"/>
<path d="M483.816 168.735C488.304 164.239 488.304 156.95 483.816 152.454C479.328 147.959 472.051 147.959 467.563 152.454C463.075 156.95 463.075 164.239 467.563 168.735C472.051 173.23 479.328 173.23 483.816 168.735Z" fill="white" stroke="white" stroke-miterlimit="10" stroke-linecap="round" stroke-linejoin="round"/>
<path d="M289.565 141.986C294.278 137.727 294.653 130.448 290.401 125.726C286.15 121.005 278.883 120.63 274.169 124.888C269.456 129.147 269.081 136.426 273.332 141.148C277.584 145.869 284.851 146.244 289.565 141.986Z" fill="white" stroke="white" stroke-miterlimit="10" stroke-linecap="round" stroke-linejoin="round"/>
<path d="M312.977 424.597C317.465 420.102 317.465 412.813 312.977 408.317C308.489 403.822 301.212 403.822 296.724 408.317C292.236 412.813 292.236 420.102 296.724 424.597C301.212 429.093 308.489 429.093 312.977 424.597Z" fill="white" stroke="white" stroke-miterlimit="10" stroke-linecap="round" stroke-linejoin="round"/>
<path d="M267.705 155.515C272.628 154.712 275.97 150.065 275.169 145.134C274.368 140.203 269.727 136.856 264.805 137.658C259.882 138.46 256.541 143.108 257.342 148.039C258.143 152.97 262.783 156.317 267.705 155.515Z" fill="white" stroke="white" stroke-miterlimit="10" stroke-linecap="round" stroke-linejoin="round"/>
<path d="M111.027 320.197C116.014 320.197 120.057 316.147 120.057 311.151C120.057 306.155 116.014 302.105 111.027 302.105C106.039 302.105 101.996 306.155 101.996 311.151C101.996 316.147 106.039 320.197 111.027 320.197Z" fill="white" stroke="white" stroke-miterlimit="10" stroke-linecap="round" stroke-linejoin="round"/>
<path d="M208.769 463.344C213.756 463.344 217.8 459.294 217.8 454.298C217.8 449.302 213.756 445.252 208.769 445.252C203.781 445.252 199.738 449.302 199.738 454.298C199.738 459.294 203.781 463.344 208.769 463.344Z" fill="white" stroke="white" stroke-miterlimit="10" stroke-linecap="round" stroke-linejoin="round"/>
<path d="M478.33 359.396C484.509 357.941 488.341 351.744 486.888 345.555C485.436 339.366 479.25 335.527 473.071 336.982C466.892 338.437 463.06 344.633 464.512 350.823C465.964 357.012 472.151 360.85 478.33 359.396Z" fill="white" stroke="white" stroke-miterlimit="10" stroke-linecap="round" stroke-linejoin="round"/>
</g>
<defs>
<clipPath id="clip0_4_297">
<rect width="838" height="496" fill="white"/>
</clipPath>
</defs>
</svg>
